<svg xmlns="http://www.w3.org/2000/svg" viewBox="0 0 200 200"><ellipse opacity=".1" cx="98.6" cy="190.7" rx="86.4" ry="5.3"/><circle fill="#AFACA3" cx="99.4" cy="95.5" r="93.5"/><circle fill="#CCC2AC" cx="97.5" cy="98.6" r="92.1"/><path d="M161.1 31.8l-134.9 125c2 2.4 4 4.7 6.2 6.8L167.5 38.5c-2-2.4-4.2-4.6-6.4-6.7zm23.1 35.5c-2.6-7.2-6-14-10.3-20.3L40.4 170.7c5.9 4.7 12.4 8.7 19.4 11.8L184.2 67.3zM10.4 128.4c2.7 7.8 6.3 15 10.9 21.7L154.9 26.3c-6.3-5-13.3-9.2-20.8-12.5L10.4 128.4z" opacity=".28" fill="#FFF"/><circle fill="none" stroke="#7F7D73" stroke-width="1.929" stroke-linecap="round" stroke-linejoin="round" stroke-dasharray="1.9233,5.77" cx="97.2" cy="98.8" r="84.5"/><circle fill="#BAAF99" cx="97.5" cy="98.4" r="77.1"/><circle fill="#9E9C90" cx="97.5" cy="98.4" r="73.7"/><path d="M25.5 114.4c1.8 8.3 5.1 16.1 9.4 23L141.2 39c-6.6-4.9-14.1-8.7-22.2-11.2l-93.5 86.6zm122.1-70.1L39.7 144.2c1.9 2.4 4 4.7 6.2 6.9L153.9 51c-1.9-2.4-4.1-4.6-6.3-6.7zm21.6 36.9c-1.8-7.7-4.9-14.9-8.9-21.5L54.1 158c6.2 4.6 13.2 8.1 20.7 10.6l94.4-87.4z" opacity=".16" fill="#FFF"/><path fill="#FFF" d="M66.7 112.1c-.9 12.5-2.8 14.2-14.7 15.2 11.9 1 13.8 2.7 14.7 15.2.9-12.5 2.8-14.2 14.7-15.2-12-1-13.8-2.7-14.7-15.2zm83-102.4c-1.5 20-4.4 22.8-23.5 24.3 19.1 1.5 22 4.3 23.5 24.3 1.5-20 4.4-22.8 23.5-24.3-19.1-1.5-22-4.3-23.5-24.3z"/><g fill="#9E9C90"><path d="M137.9 94.4H127v14.8h10.9c3.8 0 7-3.3 7-7.4 0-4.1-3.1-7.4-7-7.4zm-.8 11.6h-6.2v-8.4h6.2c2.2 0 4 1.9 4 4.2s-1.8 4.2-4 4.2z"/><path d="M127 106.7h3.3v14.6H127z"/><path d="M124.9 106h7.7v3.2h-7.7zm0 6.4h15.3v3.2h-15.3z"/></g><g fill="#E0D8C7"><path d="M138.6 93.7h-10.9v14.8h10.9c3.8 0 7-3.3 7-7.4s-3.1-7.4-7-7.4zm-.8 11.6h-6.2v-8.4h6.2c2.2 0 4 1.9 4 4.2s-1.8 4.2-4 4.2z"/><path d="M127.8 106h3.3v14.6h-3.3z"/><path d="M125.6 105.3h7.7v3.2h-7.7zm0 6.4h15.3v3.2h-15.3z"/></g><path d="M89.7 110.4v7.5H65.6v-6.3c7.2-11.7 11.4-19 12.8-21.8 1.4-2.8 2-5 2-6.5 0-1.2-.2-2.1-.6-2.7-.4-.6-1-.9-1.9-.9-.8 0-1.5.3-1.9 1-.4.7-.6 1.9-.6 3.9v4.2h-9.8v-1.6c0-2.5.1-4.4.4-5.8.3-1.4.9-2.8 1.9-4.2s2.3-2.4 3.9-3.1c1.6-.7 3.5-1.1 5.7-1.1 4.4 0 7.7 1.1 9.9 3.3 2.2 2.2 3.4 4.9 3.4 8.2 0 2.5-.6 5.2-1.9 8-1.3 2.8-5 8.8-11.1 17.9h11.9zm30.2-21.6v14.7c0 3.3-.2 5.8-.5 7.3-.4 1.5-1.1 2.9-2.3 4.3-1.1 1.3-2.5 2.3-4.1 2.9s-3.4.9-5.4.9c-2.6 0-4.8-.3-6.6-.9-1.7-.6-3.1-1.6-4.2-2.8-1-1.3-1.8-2.6-2.2-4.1-.4-1.4-.7-3.7-.7-6.8V88.8c0-4 .3-7.1 1-9.1s2.1-3.6 4.2-4.8c2.1-1.2 4.6-1.8 7.5-1.8 2.4 0 4.6.4 6.5 1.3s3.3 1.9 4.3 3.1c.9 1.2 1.6 2.6 1.9 4.1.5 1.4.6 3.9.6 7.2zM109 85.1c0-2.3-.1-3.8-.3-4.4-.2-.6-.8-.9-1.6-.9s-1.4.3-1.6.9c-.3.6-.4 2.1-.4 4.3v21.5c0 2.6.1 4.1.4 4.6.2.5.8.8 1.6.8s1.4-.3 1.6-.9c.3-.6.4-2 .4-4.2V85.1z" fill="#7F7D73"/><path d="M88.1 109.4v7.5H63.9v-6.3c7.2-11.7 11.4-19 12.8-21.8 1.4-2.8 2-5 2-6.5 0-1.2-.2-2.1-.6-2.7-.4-.6-1-.9-1.9-.9-.8 0-1.5.3-1.9 1-.4.7-.6 1.9-.6 3.9v4.2h-9.8v-1.6c0-2.5.1-4.4.4-5.8.3-1.4.9-2.8 1.9-4.2s2.3-2.4 3.9-3.1c1.6-.7 3.5-1.1 5.7-1.1 4.4 0 7.7 1.1 9.9 3.3 2.2 2.2 3.4 4.9 3.4 8.2 0 2.5-.6 5.2-1.9 8-1.3 2.8-5 8.8-11.1 17.9h12zm30.2-21.7v14.7c0 3.3-.2 5.8-.5 7.3s-1.1 2.9-2.3 4.3-2.5 2.3-4.1 2.9-3.4.9-5.4.9c-2.6 0-4.8-.3-6.6-.9-1.7-.6-3.1-1.6-4.2-2.8-1-1.3-1.8-2.6-2.2-4.1-.4-1.4-.7-3.7-.7-6.8V87.7c0-4 .3-7.1 1-9.1s2.1-3.6 4.2-4.8c2.1-1.2 4.6-1.8 7.5-1.8 2.4 0 4.6.4 6.5 1.3s3.3 1.9 4.3 3.1c.9 1.2 1.6 2.6 1.9 4.1.4 1.5.6 3.9.6 7.2zm-11-3.7c0-2.3-.1-3.8-.3-4.4s-.8-.9-1.6-.9-1.4.3-1.6.9c-.3.6-.4 2.1-.4 4.3v21.5c0 2.6.1 4.1.4 4.6s.8.8 1.6.8 1.4-.3 1.6-.9c.3-.6.4-2 .4-4.2V84z" fill="#EFEAE1"/></svg>