<svg xmlns="http://www.w3.org/2000/svg" width="225.783" height="259.379"><path d="M45.502 13.833c-10.389.202-20.538 5.136-27.062 14.22C7.453 43.35 10.955 64.69 26.252 75.676c.606.435 1.22.767 1.844 1.156C42.074 65.84 64.87 34.083 67.97 21.803c-.638-.533-1.252-1.071-1.938-1.563a33.962 33.962 0 0 0-20.53-6.407zM70.877 24.49c-3.812 16.9-24.383 41.04-38.031 54.843a34.089 34.089 0 0 0 22.312 1.5c.016-.016.047-.015.063-.03 4.606-4.68 9.712-10.822 13.781-16.5 4.097-5.719 8.309-12.374 11.156-18.345-.46-7.864-3.636-15.525-9.28-21.468zm40.188 21.718c-2.08.052-4.112 1.097-5.313 2.97L95.533 65.114c-1.03 1.606-4.444 4.535-3.968 6.25.41 1.482 3.83 3.203 5.218 4.093l13.157 5.657c2.995 1.92 5.672 1.058 7.593-1.938l10.188-15.906c.856-1.336 2.196-3.22 2-4.688-.244-1.822-2.278-3.185-3.938-4.25l-11.093-7.125a6.364 6.364 0 0 0-3.625-1zm-27.97 1.875l-.03.063.062.125a150.154 150.154 0 0 1-3.656 6.594c-.018.033-.044.06-.063.093a156.285 156.285 0 0 1-7.593 11.594 156.288 156.288 0 0 1-8.5 10.781c-.016.01-.016.023-.032.032-1.694 1.954-3.357 3.848-5.062 5.625a3248.86 3248.86 0 0 1 9.875 6.03 184.463 184.463 0 0 1 8.468-11.28c3.102-4.077 8.254-7.99 13.47-4.938-2.14-4.906 4.631-7.91 5.937-12.094.355-.39.706-.809 1.031-1.25a1017.08 1017.08 0 0 1-13.906-11.375zm53.47 10.782c-2.188.017-4.3 1.121-5.5 3.125l-9.563 15.968c-.97 1.622-3.259 4.251-2.75 5.938.45 1.49 3.537 2.08 4.969 2.937 2.263 1.169 10.732 3.438 10.844 6.47.126 3.425-3.225 9.716-.844 13.374 1.197.717 4.883-4.121 7.281-7.656 1.031-1.52 2.208-2.456 2.594-2.938.912-1.137 1.916-1.94 2.719-3.28l9.562-15.938c1.828-3.054.835-7.047-2.219-8.875l-13.718-8.22a6.475 6.475 0 0 0-3.375-.905zM85.815 73.74c-.152.008-.314.009-.47.031-1.472.452-2.775 1.15-3.968 2-.077.065-.172.12-.25.187-1.798 1.564-3.832 3.828-5.969 6.563-2.002 2.87-3.803 5.924-5.937 8.375-8.315 12.536-16.25 27.824-16.25 30.937 0 5.52 17.467 23.806 25.969 38.625 8.332 14.527 18.721 24.997 17.75 27.22-2.578 14.882-3.97 21.329-6.5 39.593-2.531 18.264.093 18.281.093 18.281s67.733-.226 69.063-.344c1.329-.117 1.062-2 1.062-2 0-2.156.438-4.676.875-6.593.437-1.917.344-15.366.344-20.782-.65-5.14.955-24.125 1.188-25 .232-.874 1.553-2.46 3.093-4s4.063-6.343 4.063-6.343c3.082-4.109 3.774-3.189 5.281-6.407 1.036-2.212 2.53-9.35 3.594-14.062-5.245-3.257-10.425-6.674-15.719-9.813l-.875.782c-.504.706-1.42.652-1.906-.5-.487-1.153-1.719-1.969-1.719-1.969-1.53-.576-4.9-4.315-9.406-8.313-3.881-4.818-8.64-4.457-11.188-5.468-2.548-1.011-19.845-4.658-22.062-4.782-2.217-.123 0 2.782 0 2.782 4.021 5.296 17.096 20.99 17.156 21.062-.08-.063-.267-.007 1.906 5.031 2.484 5.76 4.21 12.121 5.813 14.875 1.327 5.646 4.155 7.41 5.687 8.22 1.533.808.969 1.5.969 1.5-1.011.547-3.196 2.75-4.406 2.75-1.21 0-2.625 1.78-2.625 1.78-1.487 1.332.562 35.728.562 37.282 0 1.554-.843 1.937-.843 1.937s-.766-.753-.532-1.562c.235-.81-.379-10.014-.75-12.125-.838-1.74-.531-3.907-.531-3.907.541-2.58-1.93-18.546-2.562-20.656-.634-2.11-.038-4.38-.907-5.25-.869-.869-9.07-.039-9.75-.719-.68-.68 0-.687 0-.687 4.122-.384 13.468-7.324 13.5-9.406.032-2.083-29.387-45.58-32.125-47.188-2.738-1.608-7.506-2.578-8.843-3.25-1.338-.671-3.587-2.542-7.032-3-3.445-.458-3.911-1.152-4.156-1.656-.244-.504 2.75-.938 2.75-.938 3.975-2.77 6.47-9.65 5.406-12.343-1.063-2.694-.187-3.282-.187-3.282 3.28 1.528 12.437 11.5 12.437 11.5 6.287 1.376 17.54-3.054 21.25-4.78 3.711-1.728 4.601-12.18 3.969-14.345-.263-.9-7.278-4.335-15.75-8.093-.311-.068-.637-.18-.906-.375-7.51-3.31-15.933-6.777-22.125-9.032.21.43.452.846.656 1.25-1.502-.642-2.916-1.744-4.406-2.562-.046-.015-.08-.017-.125-.031-1.594-.518-2.84-.865-3.656-1zm73.062 7.5c-1.867.04-3.696.867-4.937 2.437l-24.563 35.156c-2.206 2.793-1.73 6.888 1.063 9.094l11.562 5.531c2.792 2.207 6.888 1.73 9.094-1.062l23.75-30.063c2.206-2.792 1.73-6.887-1.063-9.093l-10.75-10.625a6.46 6.46 0 0 0-4.156-1.375zm-42.219 1.78c-.964.146.284.902 0 0zm63.282 19.282c-.553.017-1.092.2-1.5.594l-26.438 31.687c-1.634 1.578-1.83 4.088-.406 5.563l7.219 7.469c1.423 1.474 3.928 1.39 5.562-.188l28.938-27.937c1.634-1.578 1.798-4.088.375-5.563l-8.97-9.187c-1.067-1.106-3.123-2.487-4.78-2.438zm-49.125 8.125l-15.375 4.25c-2.547.689-7.983 2.363-9.532-.219-1.548-2.58-1.588-3.29-3.53-3.187-3.198.63-2.371 3.382-1.626 4.25 1.507 1.755 11.745 8.638 17.156 10.531.664.232 1.235-.173 2.25-1.687 1.016-1.515 9.927-11.5 10.72-12.688.619-1.222-.063-1.25-.063-1.25zm55.25 18.938c-4.186 3.92-8.507 7.764-12.438 11.875-2.643 1.895-5.246 5.885-8.344 8 9.197 5.672 17.918 11.041 25.438 15.593 2.06 1.48 6.977-1.828 10.937-7.343 3.961-5.515 5.497-11.146 3.438-12.625-5.671-4.742-12.116-9.978-19.031-15.5zm21.375 21.593c-1.446 5.485-5.259 10.551-9.97 13.875l4.563 3.063a4.516 4.516 0 0 0 6.25-1.156l4.657-6.688c1.415-2.036.927-4.765-1.125-6.156l-4.375-2.938z" fill="#fff"/></svg>